HIERARCHY
ROOT Hips
{
    OFFSET 0.000000 0.000000 0.000000
    CHANNELS 6 Xposition Yposition Zposition Zrotation Yrotation Xrotation
    JOINT Chest
    {
        OFFSET 0.000000 1.634758 -0.000000
        CHANNELS 3 Zrotation Yrotation Xrotation
        JOINT Chest2
        {
            OFFSET 0.000000 2.197341 0.000000
            CHANNELS 3 Zrotation Yrotation Xrotation
            JOINT Neck
            {
                OFFSET 0.000000 0.961544 0.000000
                CHANNELS 3 Zrotation Yrotation Xrotation
                JOINT Head
                {
                    OFFSET 0.000000 0.632542 -0.032565
                    CHANNELS 3 Zrotation Yrotation Xrotation
                    End Site
                    {
                        OFFSET -0.000001 0.439502 2.922845
                    }
                }
            }
            JOINT LeftCollar
            {
                OFFSET 0.167536 0.778237 -0.168280
                CHANNELS 3 Zrotation Yrotation Xrotation
                JOINT LeftShoulder
                {
                    OFFSET 0.831514 -0.002900 0.006458
                    CHANNELS 3 Zrotation Yrotation Xrotation
                    JOINT LeftElbow
                    {
                        OFFSET 2.272872 -0.026639 0.059314
                        CHANNELS 3 Zrotation Yrotation Xrotation
                        JOINT LeftWrist
                        {
                            OFFSET 2.081982 -0.024402 0.054333
                            CHANNELS 3 Zrotation Yrotation Xrotation
                            JOINT LeftHandThumb1
                            {
                                OFFSET 0.218903 -0.128645 0.283837
                                CHANNELS 3 Zrotation Yrotation Xrotation
                                JOINT LeftHandThumb2
                                {
                                    OFFSET 0.137157 -0.025101 0.077902
                                    CHANNELS 3 Zrotation Yrotation Xrotation
                                    JOINT LeftHandThumb3
                                    {
                                        OFFSET 0.144681 -0.110835 0.017953
                                        CHANNELS 3 Zrotation Yrotation Xrotation
                                        End Site
                                        {
                                            OFFSET 0.238646 -0.118123 0.030520
                                        }
                                    }
                                }
                            }
                            JOINT LeftHandFore1
                            {
                                OFFSET 0.767340 -0.016076 0.196678
                                CHANNELS 3 Zrotation Yrotation Xrotation
                                JOINT LeftHandFore2
                                {
                                    OFFSET 0.209402 -0.053342 0.017343
                                    CHANNELS 3 Zrotation Yrotation Xrotation
                                    JOINT LeftHandFore3
                                    {
                                        OFFSET 0.112818 -0.062486 0.011430
                                        CHANNELS 3 Zrotation Yrotation Xrotation
                                        End Site
                                        {
                                            OFFSET 0.141709 -0.130704 0.014206
                                        }
                                    }
                                }
                            }
                            JOINT LeftHandMiddle1
                            {
                                OFFSET 0.709887 -0.008320 0.018526
                                CHANNELS 3 Zrotation Yrotation Xrotation
                                JOINT LeftHandMiddle2
                                {
                                    OFFSET 0.234004 -0.070939 0.016534
                                    CHANNELS 3 Zrotation Yrotation Xrotation
                                    JOINT LeftHandMiddle3
                                    {
                                        OFFSET 0.117700 -0.086125 0.010599
                                        CHANNELS 3 Zrotation Yrotation Xrotation
                                        End Site
                                        {
                                            OFFSET 0.132898 -0.194117 0.016944
                                        }
                                    }
                                }
                            }
                            JOINT LeftHandRing1
                            {
                                OFFSET 0.743817 -0.005823 -0.153668
                                CHANNELS 3 Zrotation Yrotation Xrotation
                                JOINT LeftHandRing2
                                {
                                    OFFSET 0.336057 -0.108614 0.001365
                                    CHANNELS 3 Zrotation Yrotation Xrotation
                                    JOINT LeftHandRing3
                                    {
                                        OFFSET 0.089073 -0.103022 0.007615
                                        CHANNELS 3 Zrotation Yrotation Xrotation
                                        End Site
                                        {
                                            OFFSET 0.049870 -0.109053 0.006346
                                        }
                                    }
                                }
                            }
                            JOINT LeftHandLittle1
                            {
                                OFFSET 0.689408 -0.053302 -0.308304
                                CHANNELS 3 Zrotation Yrotation Xrotation
                                JOINT LeftHandLittle2
                                {
                                    OFFSET 0.193659 -0.023240 -0.003200
                                    CHANNELS 3 Zrotation Yrotation Xrotation
                                    JOINT LeftHandLittle3
                                    {
                                        OFFSET 0.097116 -0.070941 0.005652
                                        CHANNELS 3 Zrotation Yrotation Xrotation
                                        End Site
                                        {
                                            OFFSET 0.065850 -0.175011 0.036380
                                        }
                                    }
                                }
                            }
                        }
                    }
                }
            }
            JOINT RightCollar
            {
                OFFSET -0.167536 0.778237 -0.168280
                CHANNELS 3 Zrotation Yrotation Xrotation
                JOINT RightShoulder
                {
                    OFFSET -0.831514 -0.002900 0.006457
                    CHANNELS 3 Zrotation Yrotation Xrotation
                    JOINT RightElbow
                    {
                        OFFSET -2.272872 -0.026639 0.059313
                        CHANNELS 3 Zrotation Yrotation Xrotation
                        JOINT RightWrist
                        {
                            OFFSET -2.081982 -0.024402 0.054331
                            CHANNELS 3 Zrotation Yrotation Xrotation
                            JOINT RightHandThumb1
                            {
                                OFFSET -0.218911 -0.128571 0.283837
                                CHANNELS 3 Zrotation Yrotation Xrotation
                                JOINT RightHandThumb2
                                {
                                    OFFSET -0.137157 -0.025101 0.077902
                                    CHANNELS 3 Zrotation Yrotation Xrotation
                                    JOINT RightHandThumb3
                                    {
                                        OFFSET -0.171200 -0.063622 -0.013492
                                        CHANNELS 3 Zrotation Yrotation Xrotation
                                        End Site
                                        {
                                            OFFSET -0.241508 -0.113039 0.027065
                                        }
                                    }
                                }
                            }
                            JOINT RightHandFore1
                            {
                                OFFSET -0.767344 -0.015991 0.196679
                                CHANNELS 3 Zrotation Yrotation Xrotation
                                JOINT RightHandFore2
                                {
                                    OFFSET -0.209417 -0.053293 0.017356
                                    CHANNELS 3 Zrotation Yrotation Xrotation
                                    JOINT RightHandFore3
                                    {
                                        OFFSET -0.113050 -0.062512 0.008604
                                        CHANNELS 3 Zrotation Yrotation Xrotation
                                        End Site
                                        {
                                            OFFSET -0.141817 -0.130714 0.012985
                                        }
                                    }
                                }
                            }
                            JOINT RightHandMiddle1
                            {
                                OFFSET -0.709887 -0.008302 0.018525
                                CHANNELS 3 Zrotation Yrotation Xrotation
                                JOINT RightHandMiddle2
                                {
                                    OFFSET -0.233992 -0.070960 0.016557
                                    CHANNELS 3 Zrotation Yrotation Xrotation
                                    JOINT RightHandMiddle3
                                    {
                                        OFFSET -0.117946 -0.086170 0.006920
                                        CHANNELS 3 Zrotation Yrotation Xrotation
                                        End Site
                                        {
                                            OFFSET -0.133729 -0.194234 0.004481
                                        }
                                    }
                                }
                            }
                            JOINT RightHandRing1
                            {
                                OFFSET -0.743819 -0.005785 -0.153669
                                CHANNELS 3 Zrotation Yrotation Xrotation
                                JOINT RightHandRing2
                                {
                                    OFFSET -0.336063 -0.108595 0.001425
                                    CHANNELS 3 Zrotation Yrotation Xrotation
                                    JOINT RightHandRing3
                                    {
                                        OFFSET -0.089691 -0.101372 -0.016861
                                        CHANNELS 3 Zrotation Yrotation Xrotation
                                        End Site
                                        {
                                            OFFSET -0.050489 -0.107380 -0.018456
                                        }
                                    }
                                }
                            }
                            JOINT RightHandLittle1
                            {
                                OFFSET -0.689403 -0.053298 -0.308303
                                CHANNELS 3 Zrotation Yrotation Xrotation
                                JOINT RightHandLittle2
                                {
                                    OFFSET -0.193662 -0.023241 -0.003188
                                    CHANNELS 3 Zrotation Yrotation Xrotation
                                    JOINT RightHandLittle3
                                    {
                                        OFFSET -0.096879 -0.070403 -0.012385
                                        CHANNELS 3 Zrotation Yrotation Xrotation
                                        End Site
                                        {
                                            OFFSET -0.064715 -0.172484 -0.048475
                                        }
                                    }
                                }
                            }
                        }
                    }
                }
            }
        }
    }
    JOINT LeftHip
    {
        OFFSET 0.685143 0.673822 -0.044491
        CHANNELS 3 Zrotation Yrotation Xrotation
        JOINT LeftKnee
        {
            OFFSET 0.085364 -3.750208 0.017676
            CHANNELS 3 Zrotation Yrotation Xrotation
            JOINT LeftAnkle
            {
                OFFSET 0.094583 -4.155206 0.019585
                CHANNELS 3 Zrotation Yrotation Xrotation
                JOINT LeftToe
                {
                    OFFSET -0.000000 -0.395925 0.621478
                    CHANNELS 3 Zrotation Yrotation Xrotation
                    End Site
                    {
                        OFFSET -0.000000 -0.077878 0.321152
                    }
                }
            }
        }
    }
    JOINT RightHip
    {
        OFFSET -0.685143 0.673822 -0.044492
        CHANNELS 3 Zrotation Yrotation Xrotation
        JOINT RightKnee
        {
            OFFSET -0.085364 -3.750208 0.017677
            CHANNELS 3 Zrotation Yrotation Xrotation
            JOINT RightAnkle
            {
                OFFSET -0.094583 -4.155206 0.019585
                CHANNELS 3 Zrotation Yrotation Xrotation
                JOINT RightToe
                {
                    OFFSET -0.000000 -0.395925 0.621478
                    CHANNELS 3 Zrotation Yrotation Xrotation
                    End Site
                    {
                        OFFSET -0.000000 -0.077878 0.321152
                    }
                }
            }
        }
    }
}
MOTION
Frames: 5
Frame Time: 0.033333
-0.125171 8.274688 -0.474369 180.000000 -0.000011 180.000000 -0.655059 0.677609 -1.594008 1.013224 -0.171032 -4.072171 5.715097 7.076239 12.212321 -0.728994 13.881547 25.432512 2.883888 -4.287540 -0.003592 25.396238 5.963233 -15.633990 178.434738 -41.546833 -179.413559 21.711559 -4.058235 19.167248 0.000003 -0.000004 -0.000022 -21.202291 0.912735 -18.095057 -3.577959 -6.567465 11.093454 -26.525501 1.601191 2.776606 -30.745056 -1.228965 0.696490 -22.019621 -1.011578 0.855130 -35.142128 -0.601008 2.265167 -55.064335 -0.718748 3.426161 -40.635963 -0.839946 2.416686 -58.555027 -3.606166 3.673923 -39.752068 -1.540293 0.843407 -37.764362 -2.211906 2.097283 -58.283760 -5.751081 2.861692 -59.883423 -8.886453 10.024241 -42.385693 -7.442801 1.932331 -2.501584 8.188708 -0.038583 -26.610287 22.439379 -13.993000 -177.942154 61.185028 -178.790588 -36.173477 23.646944 20.119043 -0.000002 0.000007 -0.000015 -17.503731 -0.113827 21.193628 5.319637 -8.733583 -9.019300 27.105026 -1.661383 2.791332 31.118113 -1.381393 4.249382 22.247644 -0.842444 2.688455 35.612282 0.603770 2.299714 55.345074 -3.288944 3.405342 40.823532 -2.105572 2.908062 58.882706 3.654802 3.720655 39.724785 -7.269470 -0.725667 37.515648 -7.632299 -1.890737 58.635746 5.841506 2.967361 59.975304 -11.175544 -13.042715 42.506912 -9.434828 -3.837371 -0.982868 2.968733 -4.721101 0.046240 0.344171 15.301511 -0.501350 0.372581 -15.296815 -0.017630 -0.110542 -4.570016 -0.079105 -1.758057 -4.560320 -0.044560 -0.338025 15.021710 -2.693326 1.817649 -14.610625 -0.033130 -0.230847 -5.464244
-0.125278 8.274688 -0.474369 180.000000 -0.000011 180.000000 -0.666367 0.711105 -1.638678 1.087472 -0.181726 -4.038659 5.439238 7.092725 12.239961 -0.729331 13.887757 25.485237 2.881503 -4.297039 -0.002916 23.449589 5.916436 -16.233641 178.429123 -41.950397 -179.405090 22.378738 -3.731468 17.625231 0.000002 -0.000008 -0.000014 -23.558493 2.267009 -17.773249 -3.542216 -6.254657 11.840853 -41.738575 2.345692 2.624009 -52.772274 -1.798880 1.539325 -32.767517 -1.369001 1.397142 -44.793884 -0.526668 2.901937 -64.376472 -0.505058 4.002647 -45.465767 -0.820521 2.726843 -59.991970 -4.138345 3.974893 -50.876453 -1.833694 1.250065 -43.672024 -2.413901 2.537006 -61.270725 -5.587327 5.257101 -64.900558 -9.067976 11.172832 -46.901489 -8.095820 2.447003 -2.538235 8.159710 -0.039265 -26.223600 22.448059 -14.486614 -177.954071 60.910637 -178.804245 -36.919758 23.109707 20.411297 -0.000004 0.000007 -0.000003 -18.382196 -1.328655 22.120886 8.686811 -9.328789 -9.000534 42.661205 -2.410234 2.621745 53.392948 -3.651782 6.545616 33.153255 -1.619045 3.841243 45.455223 0.523292 2.948549 64.836571 -4.108756 3.603768 45.699627 -2.480887 3.136161 60.288700 4.191081 4.017455 51.037891 -9.062439 -1.825706 43.488003 -8.653358 -2.630356 61.612541 5.629892 5.414049 65.045540 -11.380649 -14.523969 47.055729 -10.198469 -4.629402 -0.964494 3.319617 -4.729909 0.046262 0.344251 15.305172 -0.482208 0.003600 -15.235310 -0.018169 -0.114901 -4.646051 -0.066791 -1.514299 -4.554571 -0.044553 -0.337999 15.020531 -2.629512 1.656436 -14.607532 -0.032502 -0.226464 -5.464002
-0.125385 8.274688 -0.474369 180.000000 -0.000011 180.000000 -0.645155 0.699556 -1.668809 1.061659 -0.178332 -4.035108 5.159917 7.116131 12.264039 -0.732696 13.949334 25.532066 2.881733 -4.332084 -0.003287 21.554987 5.800763 -16.871416 178.422913 -42.387142 -179.395798 22.950779 -3.223402 16.208025 0.000014 -0.000009 -0.000012 -25.840075 3.593606 -17.514351 -3.503643 -5.951692 12.565497 -56.561821 3.003009 2.292248 -74.211754 -2.010463 2.506911 -43.228691 -1.613772 1.979568 -54.179436 -0.352952 3.500758 -73.401321 -0.211446 4.521316 -50.151947 -0.776768 3.025220 -61.361778 -4.647391 4.275170 -61.694149 -2.038504 1.692544 -49.423428 -2.566031 2.982772 -64.156487 -5.308421 7.569934 -69.771240 -9.148572 12.298554 -51.294056 -8.688880 2.995202 -2.562787 8.129097 -0.039050 -25.788773 22.753134 -14.997711 -177.961639 60.733879 -178.812927 -37.303371 22.666527 20.751265 0.000002 0.000006 0.000003 -19.175804 -2.499998 23.060741 11.710637 -9.877269 -9.035149 57.393623 -3.043653 2.281131 74.424873 -6.447050 7.774256 43.447224 -2.540802 4.777431 54.744839 0.346609 3.539913 73.744301 -4.897418 3.664351 50.278183 -2.849733 3.320621 61.550812 4.687833 4.297901 61.789227 -10.525830 -3.177139 49.158226 -9.543065 -3.426542 64.387337 5.310758 7.699645 69.805443 -11.455560 -15.925325 51.340027 -10.856050 -5.427563 -0.946140 3.670765 -4.738637 0.046284 0.344332 15.308881 -0.459580 -0.364986 -15.176383 -0.018656 -0.118953 -4.718217 -0.055360 -1.287307 -4.549174 -0.044547 -0.337975 15.019444 -2.570736 1.507402 -14.605289 -0.031923 -0.222409 -5.463269
-0.125492 8.274688 -0.474369 180.000000 -0.000011 180.000000 -0.614070 0.679024 -1.686102 1.004990 -0.171061 -4.056930 4.881319 7.140538 12.296633 -0.736726 14.023004 25.592100 2.880596 -4.378215 -0.003960 19.727718 5.590948 -17.510799 178.416382 -42.836712 -179.386108 23.344948 -2.624912 15.059155 0.000012 -0.000004 -0.000002 -27.975443 4.828427 -17.317114 -3.464200 -5.667271 13.248201 -69.608437 3.542319 1.865164 -93.373550 -1.887796 3.384673 -52.565025 -1.739657 2.529278 -62.605816 -0.115440 4.008113 -81.974319 0.139706 4.965696 -54.536774 -0.713887 3.300315 -63.101326 -5.113484 4.645143 -71.491226 -2.149343 2.120123 -54.532078 -2.663105 3.389697 -66.882774 -4.968916 9.708639 -74.360237 -9.137908 13.361827 -55.443981 -9.208066 3.553139 -2.577162 8.110765 -0.038591 -25.314497 23.291857 -15.496231 -177.964798 60.659313 -178.816559 -37.253605 22.387060 21.068991 -0.000007 0.000008 -0.000003 -19.795321 -3.635874 24.025303 14.022720 -10.337282 -9.145960 69.608154 -3.536314 1.879563 92.154289 -9.007263 7.967053 52.081802 -3.433407 5.425950 62.605652 0.123913 4.012820 81.704216 -5.601824 3.614207 54.322552 -3.186858 3.458622 63.101429 5.119136 4.629372 71.023376 -11.558319 -4.538021 53.936756 -10.226528 -4.162461 66.884735 4.977331 9.688274 74.056923 -11.425859 -17.178431 55.182919 -11.392346 -6.182734 -0.927807 4.022145 -4.747208 0.046306 0.344411 15.312495 -0.433057 -0.733067 -15.120185 -0.019084 -0.122637 -4.786319 -0.044925 -1.079172 -4.544085 -0.044540 -0.337949 15.018263 -2.517446 1.372099 -14.603769 -0.031396 -0.218710 -5.462177
-0.125599 8.274688 -0.474369 180.000000 -0.000011 180.000000 -0.593117 0.674118 -1.730426 0.979280 -0.170012 -3.974271 4.607677 7.160927 12.345569 -0.739083 14.066087 25.668884 2.880742 -4.419603 -0.004303 18.045166 5.323495 -18.137804 178.409836 -43.276730 -179.376480 23.470133 -2.017061 13.966971 0.000009 -0.000001 -0.000009 -28.755938 5.275962 -17.255541 -3.449004 -5.563022 13.499175 -74.087502 3.721182 1.689501 -100.059135 -1.777166 3.674822 -55.817848 -1.762287 2.724623 -65.560394 -0.014799 4.177090 -85.149521 0.286060 5.116306 -56.137985 -0.685701 3.399472 -63.894474 -5.279167 4.810904 -74.956352 -2.170869 2.275051 -56.303219 -2.688241 3.532573 -67.888283 -4.828628 10.481918 -76.046280 -9.112855 13.751772 -56.972057 -9.388640 3.767798 -2.594090 8.114331 -0.038496 -24.909218 23.963358 -16.016060 -177.962967 60.702496 -178.814453 -36.329792 20.107607 21.568687 0.000001 0.000004 -0.000014 -19.664698 -4.612970 24.981798 13.732414 -10.459951 -9.401414 75.072746 -3.753078 1.664241 100.253525 -10.164636 7.788569 56.002655 -3.868829 5.674660 66.210228 0.000476 4.218627 85.577919 -5.940192 3.554393 56.267403 -3.352213 3.516423 64.069160 5.321396 4.831365 75.314636 -11.960247 -5.222885 56.112362 -10.516344 -4.515671 68.111565 4.806411 10.631438 76.124084 -11.378514 -17.786215 57.058002 -11.635055 -6.563557 -0.909497 4.373685 -4.755715 0.046328 0.344493 15.316204 -0.402234 -1.100506 -15.067042 -0.019448 -0.125892 -4.850102 -0.035605 -0.891989 -4.539511 -0.044534 -0.337928 15.017271 -2.470088 1.252087 -14.603071 -0.030926 -0.215391 -5.460576
